<svg width="300" height="190" viewBox="0 0 300 190" fill="none" xmlns="http://www.w3.org/2000/svg">
<path d="M0 0H300V190H0V0Z" fill="#ABF790"/>
<path d="M0 0H300H0ZM300 190H0H300ZM0 190V0V190ZM301 0V190H299V0H301Z" fill="url(#paint0_diamond_172_111)"/>
<path d="M85.9484 162V139.664H96.5084C97.5537 139.664 98.4924 139.845 99.3244 140.208C100.156 140.549 100.86 141.029 101.436 141.648C102.034 142.267 102.492 143.024 102.812 143.92C103.132 144.795 103.292 145.755 103.292 146.8C103.292 147.867 103.132 148.837 102.812 149.712C102.492 150.587 102.034 151.333 101.436 151.952C100.86 152.571 100.156 153.061 99.3244 153.424C98.4924 153.765 97.5537 153.936 96.5084 153.936H90.8124V162H85.9484ZM90.8124 149.712H95.9324C96.6577 149.712 97.223 149.531 97.6284 149.168C98.055 148.784 98.2684 148.229 98.2684 147.504V146.096C98.2684 145.371 98.055 144.827 97.6284 144.464C97.223 144.08 96.6577 143.888 95.9324 143.888H90.8124V149.712ZM111.812 162H106.948V139.664H117.54C118.564 139.664 119.492 139.835 120.324 140.176C121.156 140.517 121.86 141.008 122.436 141.648C123.034 142.267 123.492 143.013 123.812 143.888C124.132 144.763 124.292 145.733 124.292 146.8C124.292 148.315 123.951 149.637 123.268 150.768C122.607 151.899 121.594 152.72 120.228 153.232L124.612 162H119.204L115.3 153.808H111.812V162ZM116.932 149.712C117.658 149.712 118.223 149.531 118.628 149.168C119.055 148.784 119.268 148.229 119.268 147.504V146.096C119.268 145.371 119.055 144.827 118.628 144.464C118.223 144.08 117.658 143.888 116.932 143.888H111.812V149.712H116.932ZM137.158 162.384C135.686 162.384 134.342 162.139 133.126 161.648C131.91 161.157 130.876 160.432 130.022 159.472C129.169 158.491 128.508 157.285 128.038 155.856C127.569 154.405 127.334 152.731 127.334 150.832C127.334 148.933 127.569 147.269 128.038 145.84C128.508 144.389 129.169 143.184 130.022 142.224C130.876 141.243 131.91 140.507 133.126 140.016C134.342 139.525 135.686 139.28 137.158 139.28C138.63 139.28 139.974 139.525 141.19 140.016C142.406 140.507 143.441 141.243 144.294 142.224C145.148 143.184 145.809 144.389 146.278 145.84C146.748 147.269 146.982 148.933 146.982 150.832C146.982 152.731 146.748 154.405 146.278 155.856C145.809 157.285 145.148 158.491 144.294 159.472C143.441 160.432 142.406 161.157 141.19 161.648C139.974 162.139 138.63 162.384 137.158 162.384ZM137.158 158.064C138.63 158.064 139.772 157.584 140.582 156.624C141.414 155.664 141.83 154.288 141.83 152.496V149.168C141.83 147.376 141.414 146 140.582 145.04C139.772 144.08 138.63 143.6 137.158 143.6C135.686 143.6 134.534 144.08 133.702 145.04C132.892 146 132.486 147.376 132.486 149.168V152.496C132.486 154.288 132.892 155.664 133.702 156.624C134.534 157.584 135.686 158.064 137.158 158.064ZM151.042 162V139.664H165.858V143.984H155.906V148.56H164.386V152.848H155.906V162H151.042ZM168.897 162V158.128H171.777V143.536H168.897V139.664H179.521V143.536H176.641V158.128H179.521V162H168.897ZM183.573 162V139.664H188.437V157.68H196.949V162H183.573ZM200.542 162V139.664H215.742V143.984H205.406V148.56H214.27V152.848H205.406V157.68H215.742V162H200.542Z" fill="white"/>
<path d="M165.459 77.9583C169.544 74.7444 172.525 70.3372 173.989 65.3498C175.452 60.3623 175.325 55.0428 173.624 50.1311C171.924 45.2194 168.735 40.96 164.501 37.9452C160.266 34.9305 155.198 33.3104 150 33.3104C144.803 33.3104 139.734 34.9305 135.5 37.9452C131.266 40.96 128.077 45.2194 126.376 50.1311C124.676 55.0428 124.548 60.3623 126.012 65.3498C127.475 70.3372 130.457 74.7444 134.542 77.9583C127.542 80.7627 121.435 85.4139 116.871 91.4163C112.306 97.4187 109.457 104.547 108.625 112.042C108.565 112.589 108.613 113.143 108.767 113.671C108.921 114.2 109.177 114.693 109.522 115.122C110.217 115.99 111.228 116.545 112.334 116.667C113.439 116.788 114.547 116.466 115.414 115.77C116.281 115.075 116.837 114.063 116.959 112.958C117.874 104.813 121.757 97.2909 127.868 91.8283C133.978 86.3657 141.887 83.3459 150.084 83.3459C158.28 83.3459 166.189 86.3657 172.299 91.8283C178.41 97.2909 182.294 104.813 183.209 112.958C183.322 113.982 183.81 114.928 184.58 115.613C185.349 116.297 186.345 116.673 187.375 116.667H187.834C188.926 116.541 189.924 115.989 190.611 115.13C191.298 114.272 191.617 113.177 191.5 112.083C190.665 104.568 187.8 97.4208 183.212 91.4092C178.624 85.3976 172.487 80.7478 165.459 77.9583ZM150 75C146.704 75 143.482 74.0225 140.741 72.1912C138 70.3598 135.864 67.7568 134.602 64.7114C133.341 61.666 133.011 58.3148 133.654 55.0818C134.297 51.8488 135.884 48.8791 138.215 46.5482C140.546 44.2173 143.516 42.63 146.749 41.9869C149.982 41.3438 153.333 41.6739 156.378 42.9353C159.424 44.1968 162.027 46.333 163.858 49.0738C165.689 51.8146 166.667 55.037 166.667 58.3333C166.667 62.7536 164.911 66.9928 161.785 70.1184C158.66 73.244 154.421 75 150 75Z" fill="white"/>
<defs>
<radialGradient id="paint0_diamond_172_111" cx="0" cy="0" r="1" gradientUnits="userSpaceOnUse" gradientTransform="translate(150 95) rotate(180) scale(226 322.05)">
<stop/>
<stop offset="1" stop-opacity="0"/>
</radialGradient>
</defs>
</svg>
