<svg width="300" height="190" viewBox="0 0 300 190" fill="none" xmlns="http://www.w3.org/2000/svg">
<rect width="300" height="190" fill="#ABF790"/>
<path d="M30.9616 162.384C28.999 162.384 27.335 162.053 25.9696 161.392C24.6043 160.709 23.4416 159.835 22.4816 158.768L25.6816 155.536C27.1963 157.243 29.063 158.096 31.2816 158.096C32.4763 158.096 33.3616 157.851 33.9376 157.36C34.5136 156.869 34.8016 156.219 34.8016 155.408C34.8016 154.789 34.631 154.277 34.2896 153.872C33.9483 153.445 33.255 153.157 32.2096 153.008L30.0016 152.72C27.6336 152.421 25.895 151.707 24.7856 150.576C23.6976 149.445 23.1536 147.941 23.1536 146.064C23.1536 145.061 23.3456 144.144 23.7296 143.312C24.1136 142.48 24.6576 141.765 25.3616 141.168C26.087 140.571 26.9616 140.112 27.9856 139.792C29.031 139.451 30.215 139.28 31.5376 139.28C33.223 139.28 34.7056 139.547 35.9856 140.08C37.2656 140.613 38.3643 141.392 39.2816 142.416L36.0496 145.68C35.5163 145.061 34.8656 144.56 34.0976 144.176C33.351 143.771 32.4016 143.568 31.2496 143.568C30.1616 143.568 29.351 143.76 28.8176 144.144C28.2843 144.528 28.0176 145.061 28.0176 145.744C28.0176 146.512 28.2203 147.067 28.6256 147.408C29.0523 147.749 29.735 147.995 30.6736 148.144L32.8816 148.496C35.1856 148.859 36.8923 149.573 38.0016 150.64C39.111 151.685 39.6656 153.179 39.6656 155.12C39.6656 156.187 39.4736 157.168 39.0896 158.064C38.7056 158.96 38.1403 159.728 37.3936 160.368C36.6683 161.008 35.7616 161.509 34.6736 161.872C33.5856 162.213 32.3483 162.384 30.9616 162.384ZM57.0744 152.848H48.5624V162H43.6984V139.664H48.5624V148.56H57.0744V139.664H61.9384V162H57.0744V152.848ZM75.8146 162.384C74.3426 162.384 72.9986 162.139 71.7826 161.648C70.5666 161.157 69.532 160.432 68.6786 159.472C67.8253 158.491 67.164 157.285 66.6946 155.856C66.2253 154.405 65.9906 152.731 65.9906 150.832C65.9906 148.933 66.2253 147.269 66.6946 145.84C67.164 144.389 67.8253 143.184 68.6786 142.224C69.532 141.243 70.5666 140.507 71.7826 140.016C72.9986 139.525 74.3426 139.28 75.8146 139.28C77.2866 139.28 78.6306 139.525 79.8466 140.016C81.0626 140.507 82.0973 141.243 82.9506 142.224C83.804 143.184 84.4653 144.389 84.9346 145.84C85.404 147.269 85.6386 148.933 85.6386 150.832C85.6386 152.731 85.404 154.405 84.9346 155.856C84.4653 157.285 83.804 158.491 82.9506 159.472C82.0973 160.432 81.0626 161.157 79.8466 161.648C78.6306 162.139 77.2866 162.384 75.8146 162.384ZM75.8146 158.064C77.2866 158.064 78.428 157.584 79.2386 156.624C80.0706 155.664 80.4866 154.288 80.4866 152.496V149.168C80.4866 147.376 80.0706 146 79.2386 145.04C78.428 144.08 77.2866 143.6 75.8146 143.6C74.3426 143.6 73.1906 144.08 72.3586 145.04C71.548 146 71.1426 147.376 71.1426 149.168V152.496C71.1426 154.288 71.548 155.664 72.3586 156.624C73.1906 157.584 74.3426 158.064 75.8146 158.064ZM89.6984 162V139.664H100.258C101.304 139.664 102.242 139.845 103.074 140.208C103.906 140.549 104.61 141.029 105.186 141.648C105.784 142.267 106.242 143.024 106.562 143.92C106.882 144.795 107.042 145.755 107.042 146.8C107.042 147.867 106.882 148.837 106.562 149.712C106.242 150.587 105.784 151.333 105.186 151.952C104.61 152.571 103.906 153.061 103.074 153.424C102.242 153.765 101.304 153.936 100.258 153.936H94.5624V162H89.6984ZM94.5624 149.712H99.6824C100.408 149.712 100.973 149.531 101.378 149.168C101.805 148.784 102.018 148.229 102.018 147.504V146.096C102.018 145.371 101.805 144.827 101.378 144.464C100.973 144.08 100.408 143.888 99.6824 143.888H94.5624V149.712ZM110.698 162V139.664H121.258C122.304 139.664 123.242 139.845 124.074 140.208C124.906 140.549 125.61 141.029 126.186 141.648C126.784 142.267 127.242 143.024 127.562 143.92C127.882 144.795 128.042 145.755 128.042 146.8C128.042 147.867 127.882 148.837 127.562 149.712C127.242 150.587 126.784 151.333 126.186 151.952C125.61 152.571 124.906 153.061 124.074 153.424C123.242 153.765 122.304 153.936 121.258 153.936H115.562V162H110.698ZM115.562 149.712H120.682C121.408 149.712 121.973 149.531 122.378 149.168C122.805 148.784 123.018 148.229 123.018 147.504V146.096C123.018 145.371 122.805 144.827 122.378 144.464C121.973 144.08 121.408 143.888 120.682 143.888H115.562V149.712ZM130.834 162V158.128H133.714V143.536H130.834V139.664H141.458V143.536H138.578V158.128H141.458V162H130.834ZM152.327 151.44L150.183 146.96H150.087V162H145.511V139.664H150.823L156.935 150.224L159.079 154.704H159.175V139.664H163.751V162H158.439L152.327 151.44ZM182.843 158.448H182.683C182.512 159.579 181.936 160.517 180.955 161.264C179.974 162.011 178.64 162.384 176.955 162.384C175.675 162.384 174.48 162.139 173.371 161.648C172.262 161.157 171.291 160.432 170.459 159.472C169.627 158.512 168.976 157.317 168.507 155.888C168.038 154.459 167.803 152.805 167.803 150.928C167.803 149.051 168.048 147.387 168.539 145.936C169.03 144.485 169.712 143.269 170.587 142.288C171.483 141.307 172.55 140.56 173.787 140.048C175.024 139.536 176.4 139.28 177.915 139.28C179.92 139.28 181.648 139.717 183.099 140.592C184.55 141.445 185.691 142.736 186.523 144.464L182.555 146.736C182.214 145.861 181.68 145.125 180.955 144.528C180.23 143.909 179.216 143.6 177.915 143.6C176.4 143.6 175.195 144.037 174.299 144.912C173.403 145.787 172.955 147.163 172.955 149.04V152.624C172.955 154.48 173.403 155.856 174.299 156.752C175.195 157.627 176.4 158.064 177.915 158.064C178.512 158.064 179.078 158 179.611 157.872C180.144 157.723 180.614 157.509 181.019 157.232C181.424 156.933 181.734 156.581 181.947 156.176C182.182 155.771 182.299 155.291 182.299 154.736V153.616H178.139V149.552H186.939V162H182.843V158.448ZM208.254 162.384C206.739 162.384 205.374 162.149 204.158 161.68C202.942 161.189 201.907 160.475 201.054 159.536C200.2 158.576 199.539 157.392 199.07 155.984C198.6 154.555 198.366 152.891 198.366 150.992C198.366 149.115 198.6 147.451 199.07 146C199.539 144.528 200.2 143.301 201.054 142.32C201.907 141.317 202.942 140.56 204.158 140.048C205.374 139.536 206.739 139.28 208.254 139.28C210.323 139.28 212.03 139.707 213.374 140.56C214.718 141.392 215.795 142.715 216.606 144.528L212.414 146.704C212.115 145.765 211.646 145.019 211.006 144.464C210.387 143.888 209.47 143.6 208.254 143.6C206.824 143.6 205.672 144.069 204.798 145.008C203.944 145.925 203.518 147.269 203.518 149.04V152.624C203.518 154.395 203.944 155.749 204.798 156.688C205.672 157.605 206.824 158.064 208.254 158.064C209.448 158.064 210.398 157.744 211.102 157.104C211.827 156.443 212.36 155.653 212.702 154.736L216.67 157.04C215.838 158.747 214.739 160.069 213.374 161.008C212.03 161.925 210.323 162.384 208.254 162.384ZM233.583 162L231.983 156.688H224.527L222.927 162H217.999L225.359 139.664H231.375L238.639 162H233.583ZM228.303 144.08H228.143L225.679 152.56H230.799L228.303 144.08ZM246.594 162H241.73V139.664H252.322C253.346 139.664 254.274 139.835 255.106 140.176C255.938 140.517 256.642 141.008 257.218 141.648C257.815 142.267 258.274 143.013 258.594 143.888C258.914 144.763 259.074 145.733 259.074 146.8C259.074 148.315 258.732 149.637 258.05 150.768C257.388 151.899 256.375 152.72 255.01 153.232L259.394 162H253.986L250.082 153.808H246.594V162ZM251.714 149.712C252.439 149.712 253.004 149.531 253.41 149.168C253.836 148.784 254.05 148.229 254.05 147.504V146.096C254.05 145.371 253.836 144.827 253.41 144.464C253.004 144.08 252.439 143.888 251.714 143.888H246.594V149.712H251.714ZM271.823 143.984V162H266.959V143.984H260.911V139.664H277.871V143.984H271.823Z" fill="white"/>
<path d="M135.417 104.167C134.181 104.167 132.972 104.533 131.945 105.22C130.917 105.907 130.116 106.883 129.643 108.025C129.17 109.167 129.046 110.424 129.287 111.636C129.528 112.848 130.123 113.962 130.997 114.836C131.871 115.71 132.985 116.305 134.198 116.547C135.41 116.788 136.667 116.664 137.809 116.191C138.951 115.718 139.927 114.917 140.614 113.889C141.3 112.861 141.667 111.653 141.667 110.417C141.667 108.759 141.008 107.169 139.836 105.997C138.664 104.825 137.074 104.167 135.417 104.167ZM179.167 91.6667H129.167C128.062 91.6667 127.002 91.2277 126.221 90.4463C125.439 89.6649 125 88.6051 125 87.5C125 86.3949 125.439 85.3351 126.221 84.5537C127.002 83.7723 128.062 83.3333 129.167 83.3333H164.547C167.261 83.3246 169.899 82.4365 172.066 80.802C174.234 79.1676 175.812 76.8749 176.567 74.2676L183.173 51.1454C183.35 50.5253 183.381 49.8725 183.263 49.2384C183.145 48.6044 182.882 48.0063 182.493 47.4914C182.105 46.9764 181.602 46.5587 181.025 46.271C180.448 45.9832 179.812 45.8334 179.167 45.8333H128.08C127.217 43.4057 125.627 41.303 123.526 39.8117C121.425 38.3205 118.916 37.5133 116.339 37.5H112.5C111.395 37.5 110.335 37.939 109.554 38.7204C108.772 39.5018 108.333 40.5616 108.333 41.6667C108.333 42.7717 108.772 43.8315 109.554 44.6129C110.335 45.3943 111.395 45.8333 112.5 45.8333H116.339C117.244 45.8365 118.123 46.1326 118.845 46.6772C119.567 47.2219 120.094 47.9858 120.345 48.8546L120.993 51.1243L120.994 51.1454L127.83 75.0712C124.649 75.4134 121.72 76.9623 119.647 79.3989C117.574 81.8354 116.514 84.9743 116.685 88.169C116.856 91.3638 118.246 94.3713 120.568 96.5722C122.89 98.7731 125.967 99.9999 129.167 100H179.167C180.272 100 181.332 99.561 182.113 98.7796C182.895 97.9982 183.333 96.9384 183.333 95.8333C183.333 94.7283 182.895 93.6685 182.113 92.8871C181.332 92.1056 180.272 91.6667 179.167 91.6667ZM173.643 54.1667L168.555 71.9767C168.303 72.8462 167.777 73.6109 167.054 74.1559C166.332 74.701 165.452 74.9972 164.547 75H136.477L135.415 71.2825L130.527 54.1667H173.643ZM168.75 104.167C167.514 104.167 166.306 104.533 165.278 105.22C164.25 105.907 163.449 106.883 162.976 108.025C162.503 109.167 162.379 110.424 162.62 111.636C162.861 112.848 163.457 113.962 164.331 114.836C165.205 115.71 166.318 116.305 167.531 116.547C168.743 116.788 170 116.664 171.142 116.191C172.284 115.718 173.26 114.917 173.947 113.889C174.634 112.861 175 111.653 175 110.417C175 108.759 174.342 107.169 173.17 105.997C171.997 104.825 170.408 104.167 168.75 104.167Z" fill="white"/>
</svg>
