<svg width="402" height="99" viewBox="0 0 402 99" fill="none" xmlns="http://www.w3.org/2000/svg">
<path d="M252.296 76C250.448 76 249.044 75.532 248.084 74.596C247.148 73.66 246.68 72.292 246.68 70.492V61.24H244.016V57.1H245.348C246.068 57.1 246.56 56.932 246.824 56.596C247.088 56.236 247.22 55.732 247.22 55.084V51.988H252.008V57.1H255.752V61.24H252.008V71.86H255.464V76H252.296ZM259.453 76V57.1H264.781V61.204H264.961C265.057 60.676 265.225 60.172 265.465 59.692C265.705 59.188 266.017 58.744 266.401 58.36C266.809 57.976 267.289 57.676 267.841 57.46C268.393 57.22 269.041 57.1 269.785 57.1H270.721V62.068H269.389C267.829 62.068 266.665 62.272 265.897 62.68C265.153 63.088 264.781 63.844 264.781 64.948V76H259.453ZM287.483 76C286.523 76 285.719 75.7 285.071 75.1C284.447 74.5 284.051 73.696 283.883 72.688H283.667C283.379 73.912 282.743 74.848 281.759 75.496C280.775 76.12 279.563 76.432 278.123 76.432C276.227 76.432 274.775 75.928 273.767 74.92C272.759 73.912 272.255 72.58 272.255 70.924C272.255 68.932 272.975 67.456 274.415 66.496C275.879 65.512 277.859 65.02 280.355 65.02H283.343V63.832C283.343 62.92 283.103 62.2 282.623 61.672C282.143 61.12 281.339 60.844 280.211 60.844C279.155 60.844 278.315 61.072 277.691 61.528C277.067 61.984 276.551 62.5 276.143 63.076L272.975 60.268C273.743 59.14 274.703 58.264 275.855 57.64C277.031 56.992 278.615 56.668 280.607 56.668C283.295 56.668 285.311 57.256 286.655 58.432C287.999 59.608 288.671 61.324 288.671 63.58V71.86H290.435V76H287.483ZM280.103 72.724C280.991 72.724 281.747 72.532 282.371 72.148C283.019 71.764 283.343 71.14 283.343 70.276V68.044H280.751C278.663 68.044 277.619 68.752 277.619 70.168V70.708C277.619 71.404 277.835 71.92 278.267 72.256C278.699 72.568 279.311 72.724 280.103 72.724ZM294.011 76V57.1H299.339V60.304H299.555C299.891 59.32 300.479 58.468 301.319 57.748C302.159 57.028 303.323 56.668 304.811 56.668C306.755 56.668 308.219 57.316 309.203 58.612C310.211 59.908 310.715 61.756 310.715 64.156V76H305.387V64.588C305.387 63.364 305.195 62.464 304.811 61.888C304.427 61.288 303.743 60.988 302.759 60.988C302.327 60.988 301.907 61.048 301.499 61.168C301.091 61.264 300.719 61.432 300.383 61.672C300.071 61.912 299.819 62.212 299.627 62.572C299.435 62.908 299.339 63.304 299.339 63.76V76H294.011ZM321.865 76.432C320.041 76.432 318.505 76.144 317.257 75.568C316.009 74.968 314.893 74.128 313.909 73.048L317.041 69.88C317.713 70.624 318.457 71.212 319.273 71.644C320.089 72.076 321.013 72.292 322.045 72.292C323.101 72.292 323.833 72.136 324.241 71.824C324.649 71.488 324.853 71.044 324.853 70.492C324.853 69.604 324.217 69.076 322.945 68.908L320.893 68.656C316.645 68.128 314.521 66.184 314.521 62.824C314.521 61.912 314.689 61.084 315.025 60.34C315.385 59.572 315.877 58.924 316.501 58.396C317.149 57.844 317.917 57.424 318.805 57.136C319.717 56.824 320.737 56.668 321.865 56.668C322.849 56.668 323.713 56.74 324.457 56.884C325.225 57.004 325.897 57.196 326.473 57.46C327.073 57.7 327.613 58.012 328.093 58.396C328.597 58.756 329.089 59.164 329.569 59.62L326.509 62.752C325.909 62.152 325.225 61.684 324.457 61.348C323.713 60.988 322.945 60.808 322.153 60.808C321.241 60.808 320.593 60.952 320.209 61.24C319.825 61.528 319.633 61.912 319.633 62.392C319.633 62.896 319.765 63.292 320.029 63.58C320.317 63.844 320.845 64.036 321.613 64.156L323.737 64.444C327.889 64.996 329.965 66.892 329.965 70.132C329.965 71.044 329.773 71.884 329.389 72.652C329.005 73.42 328.453 74.092 327.733 74.668C327.037 75.22 326.185 75.652 325.177 75.964C324.193 76.276 323.089 76.432 321.865 76.432ZM333.597 57.1H338.925V60.268H339.105C339.369 59.212 339.969 58.348 340.905 57.676C341.865 57.004 342.957 56.668 344.181 56.668C346.581 56.668 348.393 57.508 349.617 59.188C350.841 60.868 351.453 63.316 351.453 66.532C351.453 69.748 350.841 72.208 349.617 73.912C348.393 75.592 346.581 76.432 344.181 76.432C343.557 76.432 342.969 76.336 342.417 76.144C341.865 75.976 341.361 75.736 340.905 75.424C340.473 75.088 340.101 74.704 339.789 74.272C339.477 73.816 339.249 73.336 339.105 72.832H338.925V83.2H333.597V57.1ZM342.417 72.112C343.425 72.112 344.253 71.764 344.901 71.068C345.573 70.348 345.909 69.388 345.909 68.188V64.912C345.909 63.712 345.573 62.764 344.901 62.068C344.253 61.348 343.425 60.988 342.417 60.988C341.409 60.988 340.569 61.24 339.897 61.744C339.249 62.224 338.925 62.896 338.925 63.76V69.34C338.925 70.204 339.249 70.888 339.897 71.392C340.569 71.872 341.409 72.112 342.417 72.112ZM363.168 76.432C361.776 76.432 360.528 76.204 359.424 75.748C358.344 75.292 357.42 74.632 356.652 73.768C355.908 72.904 355.332 71.86 354.924 70.636C354.516 69.412 354.312 68.044 354.312 66.532C354.312 65.02 354.516 63.652 354.924 62.428C355.332 61.204 355.908 60.172 356.652 59.332C357.42 58.468 358.344 57.808 359.424 57.352C360.528 56.896 361.776 56.668 363.168 56.668C364.56 56.668 365.796 56.896 366.876 57.352C367.98 57.808 368.904 58.468 369.648 59.332C370.416 60.172 371.004 61.204 371.412 62.428C371.82 63.652 372.024 65.02 372.024 66.532C372.024 68.044 371.82 69.412 371.412 70.636C371.004 71.86 370.416 72.904 369.648 73.768C368.904 74.632 367.98 75.292 366.876 75.748C365.796 76.204 364.56 76.432 363.168 76.432ZM363.168 72.22C364.224 72.22 365.04 71.896 365.616 71.248C366.192 70.6 366.48 69.676 366.48 68.476V64.624C366.48 63.424 366.192 62.5 365.616 61.852C365.04 61.204 364.224 60.88 363.168 60.88C362.112 60.88 361.296 61.204 360.72 61.852C360.144 62.5 359.856 63.424 359.856 64.624V68.476C359.856 69.676 360.144 70.6 360.72 71.248C361.296 71.896 362.112 72.22 363.168 72.22ZM375.82 76V57.1H381.148V61.204H381.328C381.424 60.676 381.592 60.172 381.832 59.692C382.072 59.188 382.384 58.744 382.768 58.36C383.176 57.976 383.656 57.676 384.208 57.46C384.76 57.22 385.408 57.1 386.152 57.1H387.088V62.068H385.756C384.196 62.068 383.032 62.272 382.264 62.68C381.52 63.088 381.148 63.844 381.148 64.948V76H375.82ZM397.139 76C395.291 76 393.887 75.532 392.927 74.596C391.991 73.66 391.523 72.292 391.523 70.492V61.24H388.859V57.1H390.191C390.911 57.1 391.403 56.932 391.667 56.596C391.931 56.236 392.063 55.732 392.063 55.084V51.988H396.851V57.1H400.595V61.24H396.851V71.86H400.307V76H397.139Z" fill="black"/>
<g style="mix-blend-mode:multiply">
<path d="M39.2509 78H5.89094V22H39.2509V31.2H17.4909V42.96H37.2509V52.32H17.4909V68.8H39.2509V78ZM60.4503 78H50.0503V22H60.4503V78ZM103.311 75.52C98.2443 77.4933 93.5509 78.48 89.2309 78.48C76.6976 78.48 70.4309 71.7067 70.4309 58.16C70.4309 51.28 71.9509 46.08 74.9909 42.56C78.0309 38.9867 82.4576 37.2 88.2709 37.2C93.0709 37.2 96.9109 38.6933 99.7909 41.68C102.671 44.6667 104.111 49.0933 104.111 54.96C104.111 57.3067 104.004 59.36 103.791 61.12H80.6709C80.6709 64.2667 81.5243 66.5867 83.2309 68.08C84.9376 69.5733 87.2309 70.32 90.1109 70.32C92.9909 70.32 96.8043 69.68 101.551 68.4L103.311 75.52ZM94.1109 53.76V53.2C94.1109 50.7467 93.5776 48.7733 92.5109 47.28C91.4443 45.7867 89.7643 45.04 87.4709 45.04C85.1776 45.04 83.4709 45.8667 82.3509 47.52C81.2309 49.1733 80.6443 51.2533 80.5909 53.76H94.1109ZM138.6 69.28L139.88 76.48C135.24 77.8133 131.56 78.48 128.84 78.48C122.227 78.48 117.454 76.7467 114.52 73.28C111.587 69.8133 110.12 64.7733 110.12 58.16C110.12 51.4933 111.64 46.3467 114.68 42.72C117.72 39.04 122.147 37.2 127.96 37.2C131.374 37.2 135.267 37.84 139.64 39.12L135.88 46.4C132.947 45.4933 130.52 45.04 128.6 45.04C126.68 45.04 125.16 45.4133 124.04 46.16C122.974 46.9067 122.2 47.9733 121.72 49.36C120.92 51.6533 120.52 54.8 120.52 58.8C120.52 62.7467 121.347 65.6533 123 67.52C124.654 69.3867 127.054 70.32 130.2 70.32C133.347 70.32 136.147 69.9733 138.6 69.28ZM147.775 69.36V46.8H143.695V38H147.855V26.56H158.175V38H166.575V46.8H158.095V64.24C158.095 67.8133 159.189 69.6 161.375 69.6C162.602 69.6 163.909 69.44 165.295 69.12L166.975 77.44C164.522 78.1333 161.909 78.48 159.135 78.48C156.415 78.48 153.829 77.7867 151.375 76.4C148.975 74.96 147.775 72.6133 147.775 69.36ZM186.312 51.44V78H175.832V38H184.152L185.112 41.92C187.245 40.2133 189.032 39.0133 190.472 38.32C191.912 37.5733 193.165 37.2 194.232 37.2C195.352 37.2 196.098 37.2267 196.472 37.28C196.845 37.28 197.165 37.3067 197.432 37.36C197.698 37.4133 198.152 37.52 198.792 37.68L197.832 47.2C196.872 46.88 195.565 46.72 193.912 46.72C191.672 46.72 189.138 48.2933 186.312 51.44ZM240.122 58.08C240.122 64.48 238.495 69.4933 235.242 73.12C231.988 76.7467 227.375 78.56 221.402 78.56C215.428 78.56 210.895 76.7467 207.802 73.12C204.708 69.4933 203.162 64.4533 203.162 58C203.162 51.5467 204.708 46.48 207.802 42.8C210.895 39.0667 215.348 37.2 221.162 37.2C226.975 37.2 231.588 39.0933 235.002 42.88C238.415 46.6133 240.122 51.68 240.122 58.08ZM229.482 57.92C229.482 49.76 226.868 45.68 221.642 45.68C216.308 45.68 213.642 49.7333 213.642 57.84C213.642 65.9467 216.335 70 221.722 70C224.602 70 226.602 68.9867 227.722 66.96C228.895 64.88 229.482 61.8667 229.482 57.92Z" fill="#ABF690"/>
<path d="M39.2509 78V78.5H39.7509V78H39.2509ZM5.89094 78H5.39094V78.5H5.89094V78ZM5.89094 22V21.5H5.39094V22H5.89094ZM39.2509 22H39.7509V21.5H39.2509V22ZM39.2509 31.2V31.7H39.7509V31.2H39.2509ZM17.4909 31.2V30.7H16.9909V31.2H17.4909ZM17.4909 42.96H16.9909V43.46H17.4909V42.96ZM37.2509 42.96H37.7509V42.46H37.2509V42.96ZM37.2509 52.32V52.82H37.7509V52.32H37.2509ZM17.4909 52.32V51.82H16.9909V52.32H17.4909ZM17.4909 68.8H16.9909V69.3H17.4909V68.8ZM39.2509 68.8H39.7509V68.3H39.2509V68.8ZM39.2509 77.5H5.89094V78.5H39.2509V77.5ZM6.39094 78V22H5.39094V78H6.39094ZM5.89094 22.5H39.2509V21.5H5.89094V22.5ZM38.7509 22V31.2H39.7509V22H38.7509ZM39.2509 30.7H17.4909V31.7H39.2509V30.7ZM16.9909 31.2V42.96H17.9909V31.2H16.9909ZM17.4909 43.46H37.2509V42.46H17.4909V43.46ZM36.7509 42.96V52.32H37.7509V42.96H36.7509ZM37.2509 51.82H17.4909V52.82H37.2509V51.82ZM16.9909 52.32V68.8H17.9909V52.32H16.9909ZM17.4909 69.3H39.2509V68.3H17.4909V69.3ZM38.7509 68.8V78H39.7509V68.8H38.7509ZM60.4503 78V78.5H60.9503V78H60.4503ZM50.0503 78H49.5503V78.5H50.0503V78ZM50.0503 22V21.5H49.5503V22H50.0503ZM60.4503 22H60.9503V21.5H60.4503V22ZM60.4503 77.5H50.0503V78.5H60.4503V77.5ZM50.5503 78V22H49.5503V78H50.5503ZM50.0503 22.5H60.4503V21.5H50.0503V22.5ZM59.9503 22V78H60.9503V22H59.9503ZM103.311 75.52L103.492 75.9859L103.902 75.8265L103.796 75.4L103.311 75.52ZM74.9909 42.56L75.3694 42.8868L75.3718 42.884L74.9909 42.56ZM99.7909 41.68L100.151 41.3329L99.7909 41.68ZM103.791 61.12V61.62H104.234L104.287 61.1802L103.791 61.12ZM80.6709 61.12V60.62H80.1709V61.12H80.6709ZM101.551 68.4L102.036 68.28L101.914 67.7843L101.421 67.9172L101.551 68.4ZM94.1109 53.76V54.26H94.6109V53.76H94.1109ZM92.5109 47.28L92.1041 47.5706L92.5109 47.28ZM82.3509 47.52L82.7649 47.8004L82.3509 47.52ZM80.5909 53.76L80.091 53.7494L80.0802 54.26H80.5909V53.76ZM103.129 75.0541C98.1063 77.0105 93.4751 77.98 89.2309 77.98V78.98C93.6268 78.98 98.3823 77.9762 103.492 75.9859L103.129 75.0541ZM89.2309 77.98C83.0518 77.98 78.5064 76.3121 75.498 73.0604C72.4827 69.8014 70.9309 64.8655 70.9309 58.16H69.9309C69.9309 65.0012 71.5125 70.2252 74.7639 73.7396C78.0221 77.2612 82.8768 78.98 89.2309 78.98V77.98ZM70.9309 58.16C70.9309 51.344 72.4379 46.2811 75.3693 42.8868L74.6125 42.2332C71.464 45.8789 69.9309 51.216 69.9309 58.16H70.9309ZM75.3718 42.884C78.2946 39.4484 82.5661 37.7 88.2709 37.7V36.7C82.3491 36.7 77.7673 38.5249 74.6101 42.236L75.3718 42.884ZM88.2709 37.7C92.9584 37.7 96.6602 39.1536 99.431 42.0271L100.151 41.3329C97.1617 38.233 93.1835 36.7 88.2709 36.7V37.7ZM99.431 42.0271C102.19 44.8879 103.611 49.1689 103.611 54.96H104.611C104.611 49.0178 103.152 44.4455 100.151 41.3329L99.431 42.0271ZM103.611 54.96C103.611 57.2926 103.505 59.325 103.295 61.0598L104.287 61.1802C104.504 59.395 104.611 57.3208 104.611 54.96H103.611ZM103.791 60.62H80.6709V61.62H103.791V60.62ZM80.1709 61.12C80.1709 64.3527 81.0493 66.8355 82.9017 68.4563L83.5602 67.7037C81.9992 66.3379 81.1709 64.1806 81.1709 61.12H80.1709ZM82.9017 68.4563C84.722 70.0491 87.1435 70.82 90.1109 70.82V69.82C87.3184 69.82 85.1532 69.0976 83.5602 67.7037L82.9017 68.4563ZM90.1109 70.82C93.0551 70.82 96.9174 70.1674 101.681 68.8828L101.421 67.9172C96.6912 69.1926 92.9268 69.82 90.1109 69.82V70.82ZM101.066 68.52L102.826 75.64L103.796 75.4L102.036 68.28L101.066 68.52ZM94.6109 53.76V53.2H93.6109V53.76H94.6109ZM94.6109 53.2C94.6109 50.6771 94.0625 48.5919 92.9178 46.9894L92.1041 47.5706C93.0927 48.9548 93.6109 50.8162 93.6109 53.2H94.6109ZM92.9178 46.9894C91.7338 45.3318 89.8806 44.54 87.4709 44.54V45.54C89.6479 45.54 91.1547 46.2415 92.1041 47.5706L92.9178 46.9894ZM87.4709 44.54C85.0403 44.54 83.165 45.4268 81.937 47.2396L82.7649 47.8004C83.7769 46.3065 85.3149 45.54 87.4709 45.54V44.54ZM81.937 47.2396C80.7506 48.9908 80.1459 51.1709 80.091 53.7494L81.0908 53.7706C81.1426 51.3358 81.7112 49.3558 82.7649 47.8004L81.937 47.2396ZM80.5909 54.26H94.1109V53.26H80.5909V54.26ZM138.6 69.28L139.093 69.1925L138.996 68.6486L138.464 68.7988L138.6 69.28ZM139.88 76.48L140.018 76.9606L140.451 76.8361L140.373 76.3925L139.88 76.48ZM114.52 73.28L114.139 73.603L114.52 73.28ZM114.68 42.72L115.064 43.0412L115.066 43.0384L114.68 42.72ZM139.64 39.12L140.085 39.3494L140.363 38.8105L139.781 38.6401L139.64 39.12ZM135.88 46.4L135.733 46.8777L136.133 47.0013L136.325 46.6294L135.88 46.4ZM124.04 46.16L123.763 45.7439L123.754 45.7504L124.04 46.16ZM121.72 49.36L122.192 49.5247L122.193 49.5236L121.72 49.36ZM123 67.52L123.375 67.1885L123 67.52ZM138.108 69.3675L139.388 76.5675L140.373 76.3925L139.093 69.1925L138.108 69.3675ZM139.742 75.9995C135.118 77.3282 131.491 77.98 128.84 77.98V78.98C131.63 78.98 135.362 78.2985 140.018 76.9606L139.742 75.9995ZM128.84 77.98C122.305 77.98 117.703 76.2677 114.902 72.957L114.139 73.603C117.204 77.2256 122.149 78.98 128.84 78.98V77.98ZM114.902 72.957C112.073 69.614 110.62 64.7077 110.62 58.16H109.62C109.62 64.8389 111.101 70.0126 114.139 73.603L114.902 72.957ZM110.62 58.16C110.62 51.5634 112.125 46.5472 115.063 43.0412L114.297 42.3988C111.156 46.1461 109.62 51.4233 109.62 58.16H110.62ZM115.066 43.0384C117.99 39.4984 122.26 37.7 127.96 37.7V36.7C122.034 36.7 117.45 38.5816 114.295 42.4016L115.066 43.0384ZM127.96 37.7C131.313 37.7 135.158 38.329 139.5 39.5999L139.781 38.6401C135.376 37.3509 131.434 36.7 127.96 36.7V37.7ZM139.196 38.8906L135.436 46.1706L136.325 46.6294L140.085 39.3494L139.196 38.8906ZM136.028 45.9223C133.072 45.0086 130.591 44.54 128.6 44.54V45.54C130.45 45.54 132.822 45.9781 135.733 46.8777L136.028 45.9223ZM128.6 44.54C126.622 44.54 124.993 44.9238 123.763 45.744L124.318 46.576C125.327 45.9028 126.739 45.54 128.6 45.54V44.54ZM123.754 45.7504C122.59 46.565 121.758 47.7234 121.248 49.1964L122.193 49.5236C122.643 48.2232 123.357 47.2483 124.327 46.5696L123.754 45.7504ZM121.248 49.1953C120.422 51.5648 120.02 54.7753 120.02 58.8H121.02C121.02 54.8247 121.419 51.7419 122.192 49.5247L121.248 49.1953ZM120.02 58.8C120.02 62.8012 120.856 65.853 122.626 67.8515L123.375 67.1885C121.838 65.4536 121.02 62.6921 121.02 58.8H120.02ZM122.626 67.8515C124.398 69.8522 126.951 70.82 130.2 70.82V69.82C127.157 69.82 124.909 68.9212 123.375 67.1885L122.626 67.8515ZM130.2 70.82C133.383 70.82 136.23 70.4695 138.736 69.7612L138.464 68.7988C136.064 69.4772 133.311 69.82 130.2 69.82V70.82ZM147.775 46.8H148.275V46.3H147.775V46.8ZM143.695 46.8H143.195V47.3H143.695V46.8ZM143.695 38V37.5H143.195V38H143.695ZM147.855 38V38.5H148.355V38H147.855ZM147.855 26.56V26.06H147.355V26.56H147.855ZM158.175 26.56H158.675V26.06H158.175V26.56ZM158.175 38H157.675V38.5H158.175V38ZM166.575 38H167.075V37.5H166.575V38ZM166.575 46.8V47.3H167.075V46.8H166.575ZM158.095 46.8V46.3H157.595V46.8H158.095ZM165.295 69.12L165.785 69.021L165.684 68.5172L165.183 68.6328L165.295 69.12ZM166.975 77.44L167.111 77.9212L167.557 77.7952L167.465 77.341L166.975 77.44ZM151.375 76.4L151.118 76.8289L151.129 76.8353L151.375 76.4ZM148.275 69.36V46.8H147.275V69.36H148.275ZM147.775 46.3H143.695V47.3H147.775V46.3ZM144.195 46.8V38H143.195V46.8H144.195ZM143.695 38.5H147.855V37.5H143.695V38.5ZM148.355 38V26.56H147.355V38H148.355ZM147.855 27.06H158.175V26.06H147.855V27.06ZM157.675 26.56V38H158.675V26.56H157.675ZM158.175 38.5H166.575V37.5H158.175V38.5ZM166.075 38V46.8H167.075V38H166.075ZM166.575 46.3H158.095V47.3H166.575V46.3ZM157.595 46.8V64.24H158.595V46.8H157.595ZM157.595 64.24C157.595 66.0614 157.871 67.5114 158.489 68.521C159.131 69.5706 160.117 70.1 161.375 70.1V69.1C160.447 69.1 159.793 68.7361 159.342 67.999C158.866 67.2219 158.595 65.9919 158.595 64.24H157.595ZM161.375 70.1C162.645 70.1 163.99 69.9344 165.408 69.6072L165.183 68.6328C163.827 68.9456 162.559 69.1 161.375 69.1V70.1ZM164.805 69.219L166.485 77.539L167.465 77.341L165.785 69.021L164.805 69.219ZM166.839 76.9588C164.434 77.6386 161.867 77.98 159.135 77.98V78.98C161.951 78.98 164.61 78.628 167.111 77.9212L166.839 76.9588ZM159.135 77.98C156.505 77.98 154.002 77.3106 151.621 75.9647L151.129 76.8353C153.655 78.2628 156.326 78.98 159.135 78.98V77.98ZM151.633 75.9713C149.41 74.6377 148.275 72.4715 148.275 69.36H147.275C147.275 72.7552 148.541 75.2823 151.118 76.8287L151.633 75.9713ZM186.312 51.44L185.94 51.1059L185.812 51.2484V51.44H186.312ZM186.312 78V78.5H186.812V78H186.312ZM175.832 78H175.332V78.5H175.832V78ZM175.832 38V37.5H175.332V38H175.832ZM184.152 38L184.637 37.8811L184.544 37.5H184.152V38ZM185.112 41.92L184.626 42.0389L184.812 42.7998L185.424 42.3104L185.112 41.92ZM190.472 38.32L190.688 38.7705L190.695 38.7673L190.702 38.7639L190.472 38.32ZM196.472 37.28L196.401 37.775L196.436 37.78H196.472V37.28ZM198.792 37.68L199.289 37.7302L199.332 37.2998L198.913 37.1949L198.792 37.68ZM197.832 47.2L197.673 47.6743L198.266 47.872L198.329 47.2502L197.832 47.2ZM185.812 51.44V78H186.812V51.44H185.812ZM186.312 77.5H175.832V78.5H186.312V77.5ZM176.332 78V38H175.332V78H176.332ZM175.832 38.5H184.152V37.5H175.832V38.5ZM183.666 38.1189L184.626 42.0389L185.597 41.8011L184.637 37.8811L183.666 38.1189ZM185.424 42.3104C187.545 40.6132 189.298 39.44 190.688 38.7705L190.255 37.8695C188.765 38.5867 186.944 39.8134 184.799 41.5296L185.424 42.3104ZM190.702 38.7639C192.104 38.0366 193.276 37.7 194.232 37.7V36.7C193.054 36.7 191.719 37.1101 190.241 37.8761L190.702 38.7639ZM194.232 37.7C195.357 37.7 196.068 37.7275 196.401 37.775L196.542 36.785C196.128 36.7258 195.346 36.7 194.232 36.7V37.7ZM196.472 37.78C196.823 37.78 197.109 37.8053 197.334 37.8503L197.53 36.8697C197.221 36.808 196.867 36.78 196.472 36.78V37.78ZM197.334 37.8503C197.587 37.901 198.03 38.0051 198.67 38.1651L198.913 37.1949C198.273 37.0349 197.809 36.9256 197.53 36.8697L197.334 37.8503ZM198.294 37.6298L197.334 47.1498L198.329 47.2502L199.289 37.7302L198.294 37.6298ZM197.99 46.7257C196.957 46.3813 195.589 46.22 193.912 46.22V47.22C195.541 47.22 196.786 47.3787 197.673 47.6743L197.99 46.7257ZM193.912 46.22C191.446 46.22 188.785 47.9387 185.94 51.1059L186.684 51.7741C189.492 48.648 191.897 47.22 193.912 47.22V46.22ZM235.242 73.12L235.614 73.4539L235.242 73.12ZM207.802 73.12L208.182 72.7955L207.802 73.12ZM207.802 42.8L208.184 43.1217L208.187 43.119L207.802 42.8ZM235.002 42.88L234.63 43.2148L234.633 43.2174L235.002 42.88ZM227.722 66.96L227.286 66.7143L227.284 66.7182L227.722 66.96ZM239.622 58.08C239.622 64.3963 238.017 69.2769 234.869 72.7861L235.614 73.4539C238.972 69.7098 240.622 64.5637 240.622 58.08H239.622ZM234.869 72.7861C231.732 76.2837 227.268 78.06 221.402 78.06V79.06C227.482 79.06 232.245 77.2096 235.614 73.4539L234.869 72.7861ZM221.402 78.06C215.534 78.06 211.157 76.2835 208.182 72.7955L207.421 73.4445C210.633 77.2098 215.322 79.06 221.402 79.06V78.06ZM208.182 72.7955C205.189 69.287 203.662 64.3766 203.662 58H202.662C202.662 64.53 204.227 69.6997 207.421 73.4445L208.182 72.7955ZM203.662 58C203.662 51.6239 205.189 46.6848 208.184 43.1217L207.419 42.4783C204.227 46.2752 202.662 51.4695 202.662 58H203.662ZM208.187 43.119C211.166 39.5233 215.464 37.7 221.162 37.7V36.7C215.232 36.7 210.624 38.61 207.417 42.481L208.187 43.119ZM221.162 37.7C226.855 37.7 231.325 39.5486 234.63 43.2148L235.373 42.5452C231.851 38.6381 227.095 36.7 221.162 36.7V37.7ZM234.633 43.2174C237.941 46.836 239.622 51.7705 239.622 58.08H240.622C240.622 51.5895 238.889 46.3907 235.371 42.5426L234.633 43.2174ZM229.982 57.92C229.982 53.8027 229.325 50.6288 227.943 48.4703C226.536 46.2738 224.409 45.18 221.642 45.18V46.18C224.101 46.18 225.894 47.1262 227.101 49.0097C228.331 50.9312 228.982 53.8773 228.982 57.92H229.982ZM221.642 45.18C218.826 45.18 216.66 46.2622 215.224 48.4452C213.812 50.5916 213.142 53.7477 213.142 57.84H214.142C214.142 53.8256 214.805 50.9017 216.059 48.9948C217.29 47.1244 219.123 46.18 221.642 46.18V45.18ZM213.142 57.84C213.142 61.9329 213.819 65.0899 215.245 67.2367C216.696 69.4195 218.882 70.5 221.722 70.5V69.5C219.175 69.5 217.321 68.5538 216.078 66.6833C214.811 64.7768 214.142 61.8538 214.142 57.84H213.142ZM221.722 70.5C224.731 70.5 226.929 69.4288 228.159 67.2018L227.284 66.7182C226.275 68.5446 224.472 69.5 221.722 69.5V70.5ZM228.157 67.2057C229.392 65.0167 229.982 61.9028 229.982 57.92H228.982C228.982 61.8305 228.398 64.7433 227.286 66.7143L228.157 67.2057Z" fill="black"/>
</g>
</svg>
